<?xml version="1.0" encoding="UTF-8" standalone="no"?>
<svg width="253px" height="52px" viewBox="0 0 253 52" version="1.1" xmlns="http://www.w3.org/2000/svg" xmlns:xlink="http://www.w3.org/1999/xlink">
    <!-- Generator: Sketch 42 (36781) - http://www.bohemiancoding.com/sketch -->
    <title>logo</title>
    <desc>Created with Sketch.</desc>
    <defs></defs>
    <g id="Page-1" stroke="none" stroke-width="1" fill="none" fill-rule="evenodd">
        <g id="Desktop-HD" transform="translate(-640.000000, -121.000000)" fill="#14004B">
            <g id="Group-4" transform="translate(0.000000, -1.000000)">
                <g id="logo" transform="translate(616.552630, 100.487810)">
                    <g id="Layer_1">
                        <g id="Group" transform="translate(23.735383, 21.987981)" fill-rule="nonzero">
                            <path d="M6.98682924,34.756531 L2.82015844,38.9255387 L12.7332361,48.8386164 L16.9022438,44.6719456 C17.5659199,44.9897624 18.2459543,45.2701889 18.9423468,45.5155621 L18.9423468,51.4115298 L32.9636731,51.4115298 L32.9636731,45.517899 C33.6600657,45.2725258 34.3401,44.9897624 35.0037761,44.6742825 L39.1727838,48.8409533 L49.0858615,38.9278756 L44.9191907,34.7588679 C45.2370074,34.0951918 45.517434,33.4151575 45.7628072,32.718765 L51.6587749,32.718765 L51.6587749,18.6974386 L45.7651441,18.6974386 C45.5197708,18.0010461 45.2370074,17.3210118 44.9215276,16.6573357 L49.0881984,12.488328 L39.1751207,2.57525027 L35.006113,6.74192107 C34.3401,6.42176745 33.6600657,6.14134093 32.9636731,5.89363083 L32.9636731,0 L18.9423468,0 L18.9423468,5.89363083 C18.2459543,6.13900404 17.5659199,6.42176745 16.9022438,6.73724729 L12.7332361,2.57057649 L2.82015844,12.4836542 L6.98682924,16.6526619 C6.66901251,17.316338 6.38858598,17.9963723 6.14321277,18.6927649 L0.247245059,18.6927649 L0.247245059,32.7140912 L6.14087589,32.7140912 C6.38858598,33.4128206 6.66901251,34.0928549 6.98682924,34.756531 Z M4.9210205,23.3688772 L9.67892389,23.3688772 L10.1299432,21.6162114 C10.5131928,20.1346246 11.0997516,18.7208075 11.8732615,17.4121504 L12.7939952,15.8511094 L9.42887691,12.4859911 L12.7332361,9.18163185 L16.0983545,12.5467502 L17.6593955,11.6260164 C18.9680526,10.8525066 20.3818696,10.2659478 21.8634565,9.88269816 L23.6161223,9.43167884 L23.6161223,4.67377544 L28.2898977,4.67377544 L28.2898977,9.43167884 L30.0425635,9.88269816 C31.5241503,10.2659478 32.9379674,10.8525066 34.2466245,11.6260164 L35.8076655,12.5467502 L39.1727838,9.18163185 L42.477143,12.4859911 L39.1120247,15.8511094 L40.0327585,17.4121504 C40.8062683,18.7208075 41.3928271,20.1346246 41.7760767,21.6162114 L42.227096,23.3688772 L46.9849994,23.3688772 L46.9849994,28.0426526 L42.227096,28.0426526 L41.7760767,29.7953184 C41.3928271,31.2769052 40.8062683,32.6907223 40.0327585,33.9993794 L39.1120247,35.5604204 L42.477143,38.9255387 L39.1727838,42.229898 L35.8076655,38.8647797 L34.2466245,39.7855134 C32.9379674,40.5590233 31.5241503,41.1455821 30.0425635,41.5288317 L28.2898977,41.979851 L28.2898977,46.7377544 L23.6161223,46.7377544 L23.6161223,41.979851 L21.8634565,41.5288317 C20.3818696,41.1455821 18.9680526,40.5590233 17.6593955,39.7855134 L16.0983545,38.8647797 L12.7332361,42.229898 L9.42887691,38.9255387 L12.7939952,35.5604204 L11.8732615,33.9993794 C11.0997516,32.6907223 10.5131928,31.2769052 10.1299432,29.7953184 L9.67892389,28.0426526 L4.9210205,28.0426526 L4.9210205,23.3688772 Z" id="Shape"></path>
                            <path d="M25.95301,35.0533158 C31.1081843,35.0533158 35.3005608,30.8609392 35.3005608,25.7057649 C35.3005608,20.5505906 31.1081843,16.358214 25.95301,16.358214 C20.7978357,16.358214 16.6054591,20.5505906 16.6054591,25.7057649 C16.6054591,30.8609392 20.7978357,35.0533158 25.95301,35.0533158 Z M25.95301,21.0319895 C28.5305971,21.0319895 30.6267854,23.1281778 30.6267854,25.7057649 C30.6267854,28.2833521 28.5305971,30.3795404 25.95301,30.3795404 C23.3754228,30.3795404 21.2792345,28.2833521 21.2792345,25.7057649 C21.2792345,23.1281778 23.3754228,21.0319895 25.95301,21.0319895 Z" id="Shape"></path>
                            <rect id="Rectangle-path" x="60.9826332" y="13.9269031" width="49.0746421" height="4.67377544"></rect>
                            <rect id="Rectangle-path" x="66.0770564" y="23.274454" width="44.4008667" height="4.67377544"></rect>
                            <rect id="Rectangle-path" x="72.1714796" y="32.6220049" width="38.7270912" height="4.67377544"></rect>
                        </g>
                        <text id="statikit" font-family="Corbel-Bold, Corbel" font-size="40" font-weight="bold">
                            <tspan x="153.838727" y="57.5166016">statikit</tspan>
                        </text>
                    </g>
                </g>
            </g>
        </g>
    </g>
</svg>